<mxfile host="app.diagrams.net" modified="2022-03-09T00:21:10.235Z" agent="5.0 (Windows NT 10.0; Win64; x64) AppleWebKit/537.36 (KHTML, like Gecko) Chrome/99.0.4844.51 Safari/537.36 Edg/99.0.1150.30" etag="Kg1BNZdZgXZTSv8FkcWk" version="17.0.0" type="github">
  <diagram id="JVS95RVFAD0rlQ2xIbos" name="Page-1">
    <mxGraphModel dx="1014" dy="607" grid="1" gridSize="10" guides="1" tooltips="1" connect="1" arrows="1" fold="1" page="1" pageScale="1" pageWidth="850" pageHeight="1100" math="0" shadow="0">
      <root>
        <mxCell id="0" />
        <mxCell id="1" parent="0" />
        <mxCell id="EFHahm227LC_NHk1qq3s-1" value="" style="swimlane;startSize=0;" vertex="1" parent="1">
          <mxGeometry x="40" y="210" width="30" height="40" as="geometry" />
        </mxCell>
        <mxCell id="EFHahm227LC_NHk1qq3s-3" value="Actor" style="shape=umlActor;verticalLabelPosition=bottom;verticalAlign=top;html=1;outlineConnect=0;" vertex="1" parent="1">
          <mxGeometry x="30" y="240" width="30" height="60" as="geometry" />
        </mxCell>
        <mxCell id="EFHahm227LC_NHk1qq3s-2" value="Actor" style="shape=umlActor;verticalLabelPosition=bottom;verticalAlign=top;html=1;outlineConnect=0;" vertex="1" parent="1">
          <mxGeometry x="50" y="240" width="30" height="60" as="geometry" />
        </mxCell>
        <mxCell id="EFHahm227LC_NHk1qq3s-33" value="App" style="text;html=1;align=center;verticalAlign=middle;resizable=0;points=[];autosize=1;strokeColor=none;fillColor=none;" vertex="1" parent="1">
          <mxGeometry x="10" y="190" width="40" height="20" as="geometry" />
        </mxCell>
        <mxCell id="EFHahm227LC_NHk1qq3s-34" value="" style="rounded=0;whiteSpace=wrap;html=1;" vertex="1" parent="1">
          <mxGeometry x="320" y="60" width="510" height="490" as="geometry" />
        </mxCell>
        <mxCell id="EFHahm227LC_NHk1qq3s-40" value="" style="rounded=0;whiteSpace=wrap;html=1;fillColor=#d5e8d4;strokeColor=#82b366;" vertex="1" parent="1">
          <mxGeometry x="340" y="120" width="470" height="140" as="geometry" />
        </mxCell>
        <mxCell id="EFHahm227LC_NHk1qq3s-41" value="" style="rounded=0;whiteSpace=wrap;html=1;fillColor=#d5e8d4;strokeColor=#82b366;" vertex="1" parent="1">
          <mxGeometry x="340" y="390" width="470" height="130" as="geometry" />
        </mxCell>
        <mxCell id="EFHahm227LC_NHk1qq3s-42" value="Region 1" style="text;html=1;align=center;verticalAlign=middle;resizable=0;points=[];autosize=1;strokeColor=none;fillColor=none;" vertex="1" parent="1">
          <mxGeometry x="340" y="90" width="60" height="20" as="geometry" />
        </mxCell>
        <mxCell id="EFHahm227LC_NHk1qq3s-43" value="Region 2" style="text;html=1;align=center;verticalAlign=middle;resizable=0;points=[];autosize=1;strokeColor=none;fillColor=none;" vertex="1" parent="1">
          <mxGeometry x="340" y="360" width="60" height="20" as="geometry" />
        </mxCell>
        <mxCell id="EFHahm227LC_NHk1qq3s-62" value="" style="edgeStyle=orthogonalEdgeStyle;rounded=0;orthogonalLoop=1;jettySize=auto;html=1;entryX=0.5;entryY=1;entryDx=0;entryDy=0;" edge="1" parent="1" source="EFHahm227LC_NHk1qq3s-44" target="EFHahm227LC_NHk1qq3s-53">
          <mxGeometry relative="1" as="geometry">
            <mxPoint x="244.99999999999977" y="159.9999999999999" as="targetPoint" />
          </mxGeometry>
        </mxCell>
        <mxCell id="EFHahm227LC_NHk1qq3s-44" value="API" style="shape=cube;whiteSpace=wrap;html=1;boundedLbl=1;backgroundOutline=1;darkOpacity=0.05;darkOpacity2=0.1;" vertex="1" parent="1">
          <mxGeometry x="210" y="255" width="70" height="50" as="geometry" />
        </mxCell>
        <mxCell id="EFHahm227LC_NHk1qq3s-46" value="" style="shape=flexArrow;endArrow=classic;html=1;rounded=0;" edge="1" parent="1">
          <mxGeometry width="50" height="50" relative="1" as="geometry">
            <mxPoint x="90" y="280" as="sourcePoint" />
            <mxPoint x="120" y="280" as="targetPoint" />
          </mxGeometry>
        </mxCell>
        <mxCell id="EFHahm227LC_NHk1qq3s-60" value="" style="edgeStyle=orthogonalEdgeStyle;rounded=0;orthogonalLoop=1;jettySize=auto;html=1;" edge="1" parent="1" source="EFHahm227LC_NHk1qq3s-49" target="EFHahm227LC_NHk1qq3s-44">
          <mxGeometry relative="1" as="geometry">
            <Array as="points">
              <mxPoint x="190" y="227" />
              <mxPoint x="190" y="280" />
            </Array>
          </mxGeometry>
        </mxCell>
        <mxCell id="EFHahm227LC_NHk1qq3s-49" value="Client" style="sketch=0;outlineConnect=0;fontColor=#232F3E;gradientColor=none;strokeColor=#232F3E;fillColor=#ffffff;dashed=0;verticalLabelPosition=bottom;verticalAlign=top;align=center;html=1;fontSize=12;fontStyle=0;aspect=fixed;shape=mxgraph.aws4.resourceIcon;resIcon=mxgraph.aws4.client;" vertex="1" parent="1">
          <mxGeometry x="125" y="200" width="55" height="55" as="geometry" />
        </mxCell>
        <mxCell id="EFHahm227LC_NHk1qq3s-61" value="" style="edgeStyle=orthogonalEdgeStyle;rounded=0;orthogonalLoop=1;jettySize=auto;html=1;" edge="1" parent="1" source="EFHahm227LC_NHk1qq3s-50" target="EFHahm227LC_NHk1qq3s-44">
          <mxGeometry relative="1" as="geometry">
            <Array as="points">
              <mxPoint x="190" y="320" />
              <mxPoint x="190" y="280" />
            </Array>
          </mxGeometry>
        </mxCell>
        <mxCell id="EFHahm227LC_NHk1qq3s-50" value="Mobile client" style="sketch=0;outlineConnect=0;fontColor=#232F3E;gradientColor=none;strokeColor=#232F3E;fillColor=#ffffff;dashed=0;verticalLabelPosition=bottom;verticalAlign=top;align=center;html=1;fontSize=12;fontStyle=0;aspect=fixed;shape=mxgraph.aws4.resourceIcon;resIcon=mxgraph.aws4.mobile_client;" vertex="1" parent="1">
          <mxGeometry x="125" y="290" width="60" height="60" as="geometry" />
        </mxCell>
        <mxCell id="EFHahm227LC_NHk1qq3s-58" style="edgeStyle=orthogonalEdgeStyle;rounded=0;orthogonalLoop=1;jettySize=auto;html=1;exitX=1;exitY=0.5;exitDx=0;exitDy=0;entryX=0;entryY=0.25;entryDx=0;entryDy=0;" edge="1" parent="1" source="EFHahm227LC_NHk1qq3s-53" target="EFHahm227LC_NHk1qq3s-34">
          <mxGeometry relative="1" as="geometry">
            <mxPoint x="220" y="189.47058823529414" as="targetPoint" />
          </mxGeometry>
        </mxCell>
        <mxCell id="EFHahm227LC_NHk1qq3s-53" value="balanceador de carga" style="shape=ext;double=1;rounded=1;whiteSpace=wrap;html=1;" vertex="1" parent="1">
          <mxGeometry x="210" y="60" width="80" height="80" as="geometry" />
        </mxCell>
        <mxCell id="EFHahm227LC_NHk1qq3s-63" value="AWS Cloud" style="sketch=0;outlineConnect=0;fontColor=#232F3E;gradientColor=none;strokeColor=#232F3E;fillColor=#ffffff;dashed=0;verticalLabelPosition=bottom;verticalAlign=top;align=center;html=1;fontSize=12;fontStyle=0;aspect=fixed;shape=mxgraph.aws4.resourceIcon;resIcon=mxgraph.aws4.aws_cloud;" vertex="1" parent="1">
          <mxGeometry x="780" width="40" height="40" as="geometry" />
        </mxCell>
      </root>
    </mxGraphModel>
  </diagram>
</mxfile>
